<?xml version="1.0" standalone="no"?>
<!DOCTYPE svg PUBLIC "-//W3C//DTD SVG 20010904//EN"
 "http://www.w3.org/TR/2001/REC-SVG-20010904/DTD/svg10.dtd">
<svg version="1.0" xmlns="http://www.w3.org/2000/svg"
 width="1280.000000pt" height="640.000000pt" viewBox="0 0 1280.000000 640.000000"
 preserveAspectRatio="xMidYMid meet">
<g transform="translate(0.000000,640.000000) scale(0.100000,-0.100000)"
fill="#000000" stroke="none">
<path d="M9068 4286 c-140 -166 -255 -260 -402 -331 -187 -90 -394 -128 -586
-107 -278 31 -482 133 -699 350 l-115 114 -30 -38 c-178 -227 -427 -372 -713
-418 -124 -20 -210 -20 -336 -1 -177 27 -357 103 -504 214 -88 66 -199 179
-214 218 -5 14 -16 23 -24 21 -9 -2 -44 -37 -78 -78 -244 -292 -664 -442
-1024 -365 -267 57 -480 191 -672 425 l-21 25 -22 -30 c-42 -57 -163 -177
-228 -226 -85 -64 -243 -142 -350 -173 -436 -124 -879 15 -1183 374 l-47 55
-26 -35 c-54 -70 -201 -207 -272 -254 -228 -150 -522 -214 -788 -171 -234 38
-425 132 -602 299 -56 53 -82 72 -82 60 0 -9 27 -211 60 -448 34 -237 64 -450
67 -474 7 -54 51 -94 172 -156 159 -81 321 -116 546 -116 266 0 487 63 678
192 65 44 187 162 213 207 10 17 25 31 34 31 8 0 38 -29 67 -65 76 -93 183
-177 304 -239 174 -89 334 -126 543 -126 351 0 655 127 843 351 35 41 68 76
74 78 6 2 18 -7 27 -20 9 -13 38 -48 65 -77 26 -29 50 -66 53 -81 11 -52 149
-140 301 -191 126 -42 259 -60 443 -60 169 0 252 9 375 41 159 40 388 176 405
240 10 36 102 149 123 149 9 0 17 -4 17 -9 0 -5 36 -48 80 -94 162 -171 352
-270 604 -313 121 -20 369 -15 486 11 103 23 232 73 325 126 81 45 232 179
276 244 13 19 29 35 35 35 6 0 32 -27 59 -60 114 -142 295 -265 469 -319 166
-51 442 -67 622 -36 267 47 482 165 631 347 30 37 61 68 67 68 7 0 29 -22 50
-50 79 -104 204 -201 348 -271 154 -74 318 -109 512 -109 351 0 655 127 843
351 35 41 68 76 74 78 6 2 18 -7 27 -20 39 -58 164 -176 240 -226 184 -123
399 -183 651 -183 206 1 361 31 509 100 83 39 191 110 224 146 12 14 34 142
88 512 39 271 70 498 68 503 -2 6 -27 -18 -56 -53 -165 -199 -422 -339 -697
-378 -370 -52 -780 118 -1023 425 l-32 40 -22 -30 c-52 -71 -189 -201 -264
-251 -396 -264 -896 -255 -1279 21 -72 52 -141 117 -217 205 l-56 65 -34 -39z"/>
<path d="M1765 3328 c-10 -18 -60 -73 -111 -123 -143 -141 -306 -232 -515
-287 -73 -19 -109 -22 -269 -22 -159 0 -196 3 -263 22 -200 55 -364 148 -505
285 -46 45 -82 74 -82 65 0 -22 130 -950 136 -969 7 -23 109 -93 196 -134 165
-79 419 -117 636 -96 295 29 527 132 692 307 30 33 67 75 82 94 l26 35 86 -92
c108 -115 184 -172 311 -234 123 -60 250 -94 404 -110 279 -29 589 47 795 195
55 40 153 135 215 211 l24 29 41 -50 c22 -27 58 -67 81 -89 22 -22 48 -52 57
-67 42 -64 231 -162 383 -198 310 -74 660 -40 905 86 109 56 169 106 266 222
42 50 80 92 84 92 3 0 31 -31 63 -70 105 -129 258 -234 431 -295 343 -123 749
-86 1044 96 83 51 187 144 253 228 l36 45 29 -34 c133 -156 253 -248 405 -312
340 -142 786 -125 1095 41 124 67 211 142 311 266 l32 40 53 -60 c200 -228
429 -343 748 -376 262 -27 551 39 761 173 70 45 178 145 225 209 20 27 39 49
43 49 4 0 31 -29 60 -65 94 -118 239 -223 395 -285 356 -143 819 -106 1102 88
118 80 103 32 183 587 39 270 71 497 71 505 0 8 -12 -1 -27 -20 -140 -180
-357 -323 -588 -387 -92 -26 -114 -28 -280 -28 -166 0 -188 2 -279 28 -235 65
-428 190 -586 379 l-48 57 -66 -79 c-151 -181 -361 -307 -609 -367 -55 -14
-114 -18 -247 -18 -160 0 -184 3 -275 28 -235 65 -461 216 -607 407 l-27 34
-21 -27 c-25 -31 -40 -35 -40 -9 0 11 -14 0 -42 -33 -153 -184 -358 -315 -588
-375 -130 -34 -315 -38 -450 -10 -208 43 -380 133 -536 282 -59 57 -98 87
-105 82 -8 -5 -28 10 -54 40 l-41 47 -31 -43 c-40 -56 -153 -166 -223 -218
-81 -61 -261 -146 -370 -176 -118 -32 -337 -44 -457 -24 -161 25 -326 93 -469
191 -67 46 -220 195 -257 249 l-17 25 -27 -35 c-57 -74 -179 -192 -250 -241
-100 -69 -242 -135 -360 -166 -87 -24 -117 -27 -273 -27 -162 -1 -183 1 -275
27 -236 65 -461 216 -606 405 l-26 34 -52 -65 c-166 -210 -427 -358 -700 -397
-117 -18 -324 -8 -428 19 -230 60 -448 197 -591 372 -31 38 -59 69 -62 69 -3
0 -14 -15 -25 -32z"/>
</g>
</svg>
